<svg id="svg" version="1.1" width="400" height="97.26443768996961" viewBox="0 0 400 97.26443768996961" xmlns="http://www.w3.org/2000/svg" xmlns:xlink="http://www.w3.org/1999/xlink" ><g id="svgg"><path id="path0" d="M0.000 48.583 L 0.000 97.167 200.000 97.167 L 400.000 97.167 400.000 48.583 L 400.000 0.000 200.000 0.000 L 0.000 0.000 0.000 48.583 M65.046 11.883 C 65.393 12.092,65.936 12.630,66.255 13.078 L 66.833 13.892 66.833 18.349 C 66.833 23.464,66.723 23.939,65.298 24.987 L 64.601 25.500 39.143 25.500 L 13.686 25.500 13.051 25.136 C 11.302 24.133,11.165 23.637,11.176 18.333 C 11.186 13.387,11.274 12.964,12.474 12.048 L 13.193 11.500 38.805 11.501 L 64.417 11.502 65.046 11.883 M92.812 12.000 C 93.296 12.359,94.719 14.137,97.417 17.754 C 98.074 18.635,98.427 19.102,100.099 21.301 C 100.565 21.914,101.931 23.729,103.135 25.333 C 104.338 26.938,105.531 28.504,105.786 28.814 C 106.041 29.125,106.325 29.507,106.417 29.664 C 106.579 29.940,108.915 33.055,109.250 33.440 C 109.760 34.027,112.231 37.316,112.433 37.678 C 112.606 37.986,113.496 39.062,114.113 39.708 C 114.513 40.128,114.621 40.083,115.129 39.286 C 115.379 38.893,115.679 38.462,115.797 38.328 C 115.914 38.193,116.309 37.671,116.675 37.167 C 117.041 36.662,117.583 35.957,117.879 35.599 C 118.175 35.241,118.454 34.862,118.500 34.757 C 118.546 34.652,118.980 34.045,119.465 33.408 C 120.575 31.950,124.000 27.313,124.333 26.817 C 124.471 26.612,124.696 26.324,124.833 26.175 C 124.971 26.027,125.308 25.570,125.583 25.161 C 125.858 24.752,126.289 24.192,126.541 23.917 C 126.793 23.642,126.999 23.370,126.999 23.314 C 127.000 23.257,127.431 22.640,127.958 21.941 C 128.485 21.243,129.329 20.106,129.833 19.415 C 130.337 18.724,131.313 17.416,132.000 16.510 C 132.688 15.603,133.400 14.653,133.583 14.399 C 134.714 12.831,135.183 12.273,135.677 11.909 L 136.231 11.500 141.744 11.500 L 147.256 11.500 147.884 11.927 C 148.230 12.162,148.735 12.661,149.007 13.035 L 149.500 13.717 149.500 47.624 L 149.500 81.532 149.127 82.055 C 147.919 83.752,147.640 83.825,142.353 83.830 C 137.516 83.834,137.549 83.840,136.275 82.682 C 135.380 81.869,135.422 82.910,135.333 59.250 L 135.250 37.083 134.883 37.083 C 134.517 37.083,134.216 37.436,131.492 41.046 C 130.955 41.759,130.417 42.440,130.299 42.559 C 130.180 42.677,129.821 43.132,129.500 43.570 C 129.179 44.007,128.538 44.827,128.075 45.391 C 127.613 45.955,126.906 46.862,126.505 47.407 C 126.104 47.951,125.646 48.551,125.488 48.740 C 125.330 48.929,123.830 50.846,122.156 53.000 C 120.481 55.154,118.879 57.214,118.597 57.577 C 116.362 60.452,116.077 60.667,114.505 60.667 C 113.068 60.667,112.283 60.229,111.167 58.804 C 110.662 58.160,110.046 57.397,109.797 57.109 C 109.254 56.480,109.262 56.489,108.400 55.333 C 108.025 54.829,107.560 54.229,107.368 54.000 C 106.820 53.346,104.995 51.026,104.091 49.833 C 103.640 49.237,103.087 48.563,102.863 48.333 C 102.639 48.104,102.284 47.654,102.074 47.333 C 101.865 47.012,101.491 46.525,101.243 46.250 C 100.996 45.975,100.483 45.338,100.105 44.833 C 99.726 44.329,99.279 43.767,99.111 43.583 C 98.943 43.400,98.470 42.800,98.060 42.250 C 97.650 41.700,97.188 41.100,97.034 40.917 C 96.879 40.733,96.169 39.842,95.456 38.936 C 94.034 37.131,93.481 36.507,93.295 36.503 C 93.227 36.501,93.152 46.606,93.128 58.958 L 93.083 81.417 92.669 81.998 C 91.410 83.763,91.176 83.826,85.833 83.827 L 81.417 83.827 80.629 83.332 C 80.195 83.060,79.633 82.523,79.379 82.139 L 78.917 81.441 78.917 47.492 L 78.917 13.542 79.351 12.931 C 79.590 12.595,80.040 12.133,80.350 11.904 L 80.915 11.488 86.582 11.536 L 92.250 11.583 92.812 12.000 M200.586 11.951 C 201.695 12.703,201.929 13.093,203.410 16.667 C 203.657 17.262,203.960 17.975,204.083 18.250 C 204.207 18.525,204.470 19.162,204.668 19.667 C 204.866 20.171,205.179 20.921,205.362 21.333 C 205.867 22.467,205.950 22.661,206.418 23.833 C 206.656 24.429,206.959 25.160,207.092 25.458 C 207.598 26.594,207.829 27.134,208.499 28.750 C 208.879 29.667,209.291 30.642,209.416 30.917 C 209.540 31.192,209.952 32.167,210.332 33.083 C 210.712 34.000,211.125 34.975,211.249 35.250 C 211.373 35.525,211.899 36.762,212.418 38.000 C 212.936 39.237,213.461 40.475,213.584 40.750 C 213.707 41.025,214.012 41.737,214.261 42.333 C 214.510 42.929,214.861 43.754,215.040 44.167 C 215.219 44.579,215.471 45.160,215.599 45.458 C 215.728 45.756,215.942 46.244,216.075 46.542 C 216.208 46.840,216.512 47.571,216.750 48.167 C 217.189 49.263,217.407 49.776,217.886 50.833 C 218.031 51.154,218.344 51.904,218.582 52.500 C 219.044 53.656,219.119 53.835,219.636 55.000 C 219.819 55.413,220.318 56.575,220.746 57.583 C 221.737 59.921,221.972 60.468,222.251 61.083 C 222.375 61.358,222.788 62.333,223.168 63.250 C 223.921 65.068,224.120 65.528,224.649 66.685 C 224.842 67.107,225.000 67.567,225.000 67.706 C 225.000 67.845,225.112 68.053,225.250 68.167 C 225.387 68.281,225.500 68.488,225.500 68.627 C 225.500 68.766,225.658 69.226,225.851 69.648 C 226.380 70.805,226.579 71.265,227.332 73.083 C 227.712 74.000,228.126 74.975,228.252 75.250 C 229.424 77.809,230.167 79.816,230.164 80.414 C 230.158 81.735,229.365 82.906,228.114 83.447 C 226.867 83.985,218.365 84.030,217.207 83.504 C 216.450 83.160,215.397 82.135,215.234 81.583 C 215.180 81.400,214.986 80.912,214.803 80.500 C 214.620 80.087,214.408 79.600,214.332 79.417 C 214.256 79.233,214.000 78.657,213.763 78.135 C 213.527 77.614,213.333 77.131,213.333 77.063 C 213.333 76.995,213.183 76.615,213.000 76.219 C 212.700 75.572,212.217 74.487,211.826 73.583 C 211.746 73.400,211.487 72.762,211.249 72.167 C 211.011 71.571,210.708 70.840,210.575 70.542 C 210.442 70.244,210.225 69.756,210.092 69.458 C 209.959 69.160,209.655 68.429,209.417 67.833 C 209.178 67.237,208.879 66.525,208.752 66.250 C 208.625 65.975,208.481 65.618,208.432 65.456 C 208.250 64.859,207.658 64.833,194.197 64.836 C 179.072 64.838,180.294 64.742,179.728 65.979 C 178.974 67.631,178.858 67.897,178.415 69.000 C 178.175 69.596,177.871 70.320,177.740 70.609 C 177.608 70.897,177.500 71.197,177.500 71.275 C 177.501 71.353,177.337 71.754,177.137 72.167 C 176.937 72.579,176.674 73.160,176.553 73.458 C 176.432 73.756,176.225 74.244,176.092 74.542 C 175.959 74.840,175.655 75.571,175.417 76.167 C 175.178 76.762,174.880 77.475,174.755 77.750 C 174.629 78.025,174.251 78.925,173.914 79.750 C 172.917 82.191,172.629 82.679,171.833 83.269 L 171.083 83.825 166.102 83.829 C 161.305 83.833,161.091 83.820,160.352 83.466 C 159.418 83.020,158.667 82.366,158.667 82.001 C 158.667 81.852,158.557 81.585,158.422 81.407 C 158.107 80.990,158.107 79.843,158.422 79.426 C 158.557 79.249,158.667 78.963,158.667 78.793 C 158.667 78.622,158.808 78.205,158.980 77.866 C 159.369 77.100,159.624 76.523,160.504 74.417 C 160.887 73.500,161.299 72.525,161.419 72.250 C 161.539 71.975,161.953 71.000,162.339 70.083 C 162.725 69.167,163.137 68.192,163.253 67.917 C 163.370 67.642,163.635 67.004,163.843 66.500 C 164.240 65.536,164.604 64.687,165.183 63.375 C 165.885 61.784,165.983 61.554,166.662 59.917 C 167.511 57.871,167.538 57.808,168.070 56.635 C 168.306 56.114,168.500 55.614,168.500 55.524 C 168.500 55.434,168.603 55.148,168.730 54.889 C 168.856 54.629,169.074 54.154,169.214 53.833 C 169.353 53.512,169.619 52.913,169.804 52.500 C 169.989 52.087,170.447 51.000,170.824 50.083 C 171.200 49.167,171.609 48.192,171.734 47.917 C 171.859 47.642,172.162 46.929,172.409 46.333 C 172.961 44.997,173.055 44.773,173.458 43.833 C 173.635 43.421,173.954 42.671,174.167 42.167 C 174.579 41.190,175.039 40.117,175.453 39.167 C 175.593 38.846,175.848 38.306,176.020 37.967 C 176.192 37.628,176.333 37.258,176.333 37.145 C 176.333 37.031,176.483 36.615,176.667 36.219 C 176.850 35.824,177.140 35.181,177.311 34.792 C 177.482 34.402,177.745 33.809,177.895 33.475 C 178.044 33.140,178.167 32.808,178.167 32.736 C 178.167 32.592,178.725 31.334,179.096 30.641 C 179.227 30.398,179.333 30.121,179.333 30.026 C 179.333 29.931,179.633 29.216,180.000 28.437 C 180.367 27.658,180.667 26.947,180.667 26.857 C 180.667 26.767,180.770 26.481,180.896 26.222 C 181.228 25.540,182.007 23.746,182.657 22.167 C 182.865 21.662,183.134 21.025,183.255 20.750 C 183.377 20.475,183.825 19.425,184.250 18.417 C 184.675 17.408,185.131 16.347,185.262 16.058 C 185.393 15.769,185.500 15.487,185.500 15.430 C 185.500 14.869,186.943 12.448,187.539 12.010 L 188.232 11.500 194.077 11.500 L 199.923 11.500 200.586 11.951 M251.319 11.995 C 251.739 12.267,252.271 12.768,252.500 13.108 L 252.917 13.726 252.917 47.681 L 252.917 81.636 252.408 82.276 C 252.129 82.628,251.497 83.123,251.003 83.375 L 250.107 83.833 245.797 83.833 C 240.928 83.833,240.852 83.817,239.583 82.506 L 238.917 81.817 238.871 47.867 C 238.820 10.684,238.762 13.431,239.624 12.477 C 240.497 11.510,240.423 11.522,245.735 11.511 L 250.554 11.500 251.319 11.995 M281.599 11.916 C 281.865 12.146,282.139 12.333,282.206 12.333 C 282.273 12.333,282.536 12.647,282.789 13.029 L 283.250 13.726 283.333 41.738 L 283.417 69.750 300.083 69.833 L 316.750 69.917 317.423 70.355 C 317.794 70.596,318.319 71.084,318.590 71.438 L 319.083 72.083 319.083 76.860 L 319.083 81.636 318.575 82.276 C 318.295 82.628,317.663 83.123,317.170 83.375 L 316.274 83.833 294.047 83.833 C 269.123 83.833,271.296 83.941,270.052 82.640 C 269.122 81.666,269.167 83.451,269.167 47.613 C 269.167 11.645,269.121 13.338,270.117 12.348 C 270.984 11.486,270.678 11.528,276.182 11.513 L 281.115 11.500 281.599 11.916 M334.774 11.863 C 335.614 12.283,336.282 12.974,337.321 14.500 C 337.727 15.096,338.268 15.883,338.523 16.250 C 340.224 18.692,342.119 21.439,342.863 22.542 C 343.342 23.252,343.793 23.833,343.867 23.833 C 343.940 23.833,344.000 23.920,344.000 24.027 C 344.000 24.133,344.282 24.602,344.627 25.068 C 345.322 26.007,346.116 27.141,346.500 27.742 C 346.637 27.957,347.106 28.632,347.542 29.241 C 347.977 29.851,348.333 30.397,348.333 30.456 C 348.333 30.514,348.474 30.717,348.645 30.906 C 349.014 31.313,349.721 32.325,352.965 37.083 C 353.528 37.908,354.047 38.658,354.119 38.750 C 354.191 38.842,354.472 39.254,354.744 39.667 C 355.015 40.079,355.259 40.447,355.285 40.485 C 355.379 40.623,356.063 39.895,356.603 39.083 C 356.908 38.625,357.497 37.778,357.912 37.202 C 358.327 36.626,358.667 36.088,358.667 36.008 C 358.667 35.927,358.726 35.836,358.798 35.806 C 358.871 35.775,359.157 35.412,359.433 35.000 C 359.709 34.587,360.227 33.837,360.583 33.333 C 360.938 32.829,361.534 31.967,361.906 31.417 C 362.278 30.867,362.623 30.379,362.672 30.333 C 362.721 30.287,363.036 29.837,363.373 29.333 C 363.709 28.829,364.328 27.929,364.750 27.333 C 365.172 26.738,365.791 25.837,366.127 25.333 C 366.464 24.829,366.780 24.379,366.830 24.333 C 366.881 24.287,367.295 23.688,367.750 23.000 C 368.205 22.313,368.620 21.712,368.672 21.667 C 368.724 21.621,369.288 20.815,369.925 19.876 C 370.562 18.937,371.346 17.801,371.667 17.351 C 371.988 16.901,372.479 16.207,372.760 15.808 C 373.040 15.409,373.546 14.690,373.885 14.210 C 374.223 13.730,374.501 13.280,374.503 13.210 C 374.506 13.054,375.208 12.379,375.890 11.875 C 376.446 11.464,387.060 11.278,388.068 11.661 C 390.638 12.638,390.659 15.763,388.116 18.917 C 388.042 19.008,387.611 19.608,387.159 20.250 C 386.707 20.892,386.055 21.817,385.710 22.306 C 385.365 22.795,384.971 23.365,384.833 23.574 C 384.221 24.501,383.299 25.823,382.675 26.667 C 382.303 27.171,381.950 27.696,381.891 27.833 C 381.832 27.971,381.653 28.233,381.493 28.417 C 381.333 28.600,380.796 29.350,380.300 30.083 C 379.447 31.343,379.015 31.964,377.549 34.042 C 376.767 35.150,375.302 37.284,375.083 37.633 C 374.850 38.004,374.726 38.178,374.289 38.750 C 373.913 39.240,372.412 41.437,372.083 41.976 C 371.992 42.127,371.690 42.550,371.412 42.917 C 371.135 43.283,370.707 43.883,370.460 44.250 C 370.214 44.617,369.785 45.238,369.506 45.631 C 369.228 46.024,369.000 46.414,369.000 46.498 C 369.000 46.581,368.904 46.710,368.786 46.783 C 368.668 46.857,368.297 47.329,367.961 47.833 C 367.625 48.337,367.005 49.237,366.583 49.833 C 366.162 50.429,365.542 51.329,365.206 51.833 C 364.870 52.337,364.555 52.788,364.506 52.833 C 364.456 52.879,364.079 53.404,363.666 54.000 L 362.917 55.083 362.833 68.000 C 362.736 83.155,362.850 82.368,360.583 83.437 C 359.333 84.027,351.397 84.051,350.385 83.468 C 348.208 82.214,348.333 83.147,348.333 68.198 L 348.333 55.383 347.417 54.105 C 346.912 53.403,346.500 52.789,346.500 52.742 C 346.500 52.695,346.219 52.290,345.875 51.841 C 345.531 51.393,345.001 50.664,344.697 50.221 C 344.393 49.779,343.704 48.779,343.167 48.000 C 342.629 47.221,341.940 46.221,341.636 45.779 C 341.332 45.336,340.802 44.607,340.458 44.159 C 340.115 43.710,339.833 43.297,339.833 43.240 C 339.833 43.183,339.702 42.964,339.542 42.754 C 339.381 42.544,339.137 42.203,339.000 41.996 C 338.862 41.789,338.581 41.414,338.375 41.161 C 338.169 40.909,338.000 40.656,338.000 40.599 C 338.000 40.543,337.493 39.803,336.874 38.956 C 336.255 38.110,335.524 37.079,335.250 36.667 C 334.975 36.254,334.713 35.879,334.667 35.833 C 334.621 35.787,334.264 35.281,333.875 34.708 C 333.485 34.135,332.848 33.198,332.459 32.625 C 332.069 32.052,331.709 31.546,331.658 31.500 C 331.607 31.454,331.313 31.023,331.004 30.542 C 330.696 30.060,330.381 29.667,330.305 29.667 C 330.229 29.667,330.167 29.594,330.167 29.506 C 330.167 29.417,329.938 29.024,329.658 28.631 C 329.000 27.706,327.963 26.196,327.750 25.853 C 327.658 25.705,327.390 25.322,327.153 25.001 C 326.916 24.679,326.359 23.892,325.916 23.250 C 325.472 22.608,324.845 21.708,324.523 21.250 C 324.201 20.792,323.633 19.967,323.261 19.417 C 322.888 18.867,322.544 18.379,322.494 18.333 C 320.519 16.491,320.432 13.360,322.317 11.958 L 322.917 11.512 328.482 11.506 C 333.873 11.500,334.070 11.511,334.774 11.863 M193.772 32.560 C 193.531 32.972,193.333 33.388,193.333 33.484 C 193.333 33.579,193.172 34.016,192.975 34.454 C 192.528 35.445,192.361 35.837,191.499 37.917 C 191.119 38.833,190.709 39.808,190.588 40.083 C 190.467 40.358,190.202 40.996,190.000 41.500 C 189.619 42.451,189.428 42.899,188.866 44.167 C 188.684 44.579,188.331 45.436,188.083 46.072 C 187.835 46.707,187.577 47.344,187.509 47.488 C 187.441 47.632,187.224 48.087,187.026 48.500 C 186.828 48.913,186.666 49.367,186.666 49.510 C 186.666 49.653,186.557 49.915,186.422 50.093 C 185.711 51.032,185.435 51.000,194.157 51.000 C 202.525 51.000,202.493 51.003,202.091 50.223 C 201.675 49.417,201.333 48.622,201.333 48.464 C 201.333 48.381,201.139 47.886,200.902 47.365 C 200.665 46.843,200.356 46.154,200.215 45.833 C 200.074 45.512,199.856 45.038,199.730 44.778 C 199.603 44.519,199.500 44.227,199.500 44.130 C 199.500 44.033,199.350 43.626,199.167 43.227 C 198.983 42.827,198.683 42.173,198.500 41.773 C 198.317 41.374,198.167 40.985,198.167 40.909 C 198.167 40.834,198.009 40.429,197.817 40.011 C 197.338 38.968,197.096 38.405,196.667 37.333 C 196.464 36.829,196.200 36.192,196.079 35.917 C 195.958 35.642,195.541 34.667,195.153 33.750 C 194.261 31.642,194.294 31.670,193.772 32.560 M60.167 41.083 C 60.281 41.221,60.443 41.333,60.527 41.333 C 60.899 41.333,61.734 42.149,62.100 42.869 C 62.492 43.640,62.500 43.744,62.500 48.014 L 62.500 52.372 62.068 53.166 C 60.898 55.315,62.800 55.167,36.448 55.167 L 13.789 55.167 13.186 54.806 C 11.257 53.653,11.167 53.346,11.167 47.917 C 11.167 42.581,11.251 42.269,13.000 41.124 C 13.611 40.724,59.835 40.684,60.167 41.083 M64.962 70.897 C 66.738 72.031,66.833 72.372,66.833 77.634 C 66.833 82.678,66.797 82.852,65.510 83.934 L 64.936 84.417 39.078 84.417 L 13.219 84.417 12.456 83.791 C 11.226 82.783,11.141 82.341,11.200 77.225 C 11.257 72.309,11.319 72.041,12.638 71.045 L 13.359 70.500 38.850 70.500 L 64.340 70.500 64.962 70.897 " stroke="none" fill="#ffffff" fill-rule="evenodd"></path><path id="path1" d="M12.474 12.048 C 11.274 12.964,11.186 13.387,11.176 18.333 C 11.165 23.637,11.302 24.133,13.051 25.136 L 13.686 25.500 39.143 25.500 L 64.601 25.500 65.298 24.987 C 66.723 23.939,66.833 23.464,66.833 18.349 L 66.833 13.892 66.255 13.078 C 65.936 12.630,65.393 12.092,65.046 11.883 L 64.417 11.502 38.805 11.501 L 13.193 11.500 12.474 12.048 M80.350 11.904 C 80.040 12.133,79.590 12.595,79.351 12.931 L 78.917 13.542 78.917 47.492 L 78.917 81.441 79.379 82.139 C 79.633 82.523,80.195 83.060,80.629 83.332 L 81.417 83.827 85.833 83.827 C 91.176 83.826,91.410 83.763,92.669 81.998 L 93.083 81.417 93.128 58.958 C 93.152 46.606,93.227 36.501,93.295 36.503 C 93.481 36.507,94.034 37.131,95.456 38.936 C 96.169 39.842,96.879 40.733,97.034 40.917 C 97.188 41.100,97.650 41.700,98.060 42.250 C 98.470 42.800,98.943 43.400,99.111 43.583 C 99.279 43.767,99.726 44.329,100.105 44.833 C 100.483 45.338,100.996 45.975,101.243 46.250 C 101.491 46.525,101.865 47.012,102.074 47.333 C 102.284 47.654,102.639 48.104,102.863 48.333 C 103.087 48.563,103.640 49.237,104.091 49.833 C 104.995 51.026,106.820 53.346,107.368 54.000 C 107.560 54.229,108.025 54.829,108.400 55.333 C 109.262 56.489,109.254 56.480,109.797 57.109 C 110.046 57.397,110.662 58.160,111.167 58.804 C 112.283 60.229,113.068 60.667,114.505 60.667 C 116.077 60.667,116.362 60.452,118.597 57.577 C 118.879 57.214,120.481 55.154,122.156 53.000 C 123.830 50.846,125.330 48.929,125.488 48.740 C 125.646 48.551,126.104 47.951,126.505 47.407 C 126.906 46.862,127.613 45.955,128.075 45.391 C 128.538 44.827,129.179 44.007,129.500 43.570 C 129.821 43.132,130.180 42.677,130.299 42.559 C 130.417 42.440,130.955 41.759,131.492 41.046 C 134.216 37.436,134.517 37.083,134.883 37.083 L 135.250 37.083 135.333 59.250 C 135.422 82.910,135.380 81.869,136.275 82.682 C 137.549 83.840,137.516 83.834,142.353 83.830 C 147.640 83.825,147.919 83.752,149.127 82.055 L 149.500 81.532 149.500 47.624 L 149.500 13.717 149.007 13.035 C 148.735 12.661,148.230 12.162,147.884 11.927 L 147.256 11.500 141.744 11.500 L 136.231 11.500 135.677 11.909 C 135.183 12.273,134.714 12.831,133.583 14.399 C 133.400 14.653,132.688 15.603,132.000 16.510 C 131.313 17.416,130.337 18.724,129.833 19.415 C 129.329 20.106,128.485 21.243,127.958 21.941 C 127.431 22.640,127.000 23.257,126.999 23.314 C 126.999 23.370,126.793 23.642,126.541 23.917 C 126.289 24.192,125.858 24.752,125.583 25.161 C 125.308 25.570,124.971 26.027,124.833 26.175 C 124.696 26.324,124.471 26.612,124.333 26.817 C 124.000 27.313,120.575 31.950,119.465 33.408 C 118.980 34.045,118.546 34.652,118.500 34.757 C 118.454 34.862,118.175 35.241,117.879 35.599 C 117.583 35.957,117.041 36.662,116.675 37.167 C 116.309 37.671,115.914 38.193,115.797 38.328 C 115.679 38.462,115.379 38.893,115.129 39.286 C 114.621 40.083,114.513 40.128,114.113 39.708 C 113.496 39.062,112.606 37.986,112.433 37.678 C 112.231 37.316,109.760 34.027,109.250 33.440 C 108.915 33.055,106.579 29.940,106.417 29.664 C 106.325 29.507,106.041 29.125,105.786 28.814 C 105.531 28.504,104.338 26.938,103.135 25.333 C 101.931 23.729,100.565 21.914,100.099 21.301 C 98.427 19.102,98.074 18.635,97.417 17.754 C 94.719 14.137,93.296 12.359,92.812 12.000 L 92.250 11.583 86.582 11.536 L 80.915 11.488 80.350 11.904 M187.539 12.010 C 186.943 12.448,185.500 14.869,185.500 15.430 C 185.500 15.487,185.393 15.769,185.262 16.058 C 185.131 16.347,184.675 17.408,184.250 18.417 C 183.825 19.425,183.377 20.475,183.255 20.750 C 183.134 21.025,182.865 21.662,182.657 22.167 C 182.007 23.746,181.228 25.540,180.896 26.222 C 180.770 26.481,180.667 26.767,180.667 26.857 C 180.667 26.947,180.367 27.658,180.000 28.437 C 179.633 29.216,179.333 29.931,179.333 30.026 C 179.333 30.121,179.227 30.398,179.096 30.641 C 178.725 31.334,178.167 32.592,178.167 32.736 C 178.167 32.808,178.044 33.140,177.895 33.475 C 177.745 33.809,177.482 34.402,177.311 34.792 C 177.140 35.181,176.850 35.824,176.667 36.219 C 176.483 36.615,176.333 37.031,176.333 37.145 C 176.333 37.258,176.192 37.628,176.020 37.967 C 175.848 38.306,175.593 38.846,175.453 39.167 C 175.039 40.117,174.579 41.190,174.167 42.167 C 173.954 42.671,173.635 43.421,173.458 43.833 C 173.055 44.773,172.961 44.997,172.409 46.333 C 172.162 46.929,171.859 47.642,171.734 47.917 C 171.609 48.192,171.200 49.167,170.824 50.083 C 170.447 51.000,169.989 52.087,169.804 52.500 C 169.619 52.913,169.353 53.512,169.214 53.833 C 169.074 54.154,168.856 54.629,168.730 54.889 C 168.603 55.148,168.500 55.434,168.500 55.524 C 168.500 55.614,168.306 56.114,168.070 56.635 C 167.538 57.808,167.511 57.871,166.662 59.917 C 165.983 61.554,165.885 61.784,165.183 63.375 C 164.604 64.687,164.240 65.536,163.843 66.500 C 163.635 67.004,163.370 67.642,163.253 67.917 C 163.137 68.192,162.725 69.167,162.339 70.083 C 161.953 71.000,161.539 71.975,161.419 72.250 C 161.299 72.525,160.887 73.500,160.504 74.417 C 159.624 76.523,159.369 77.100,158.980 77.866 C 158.808 78.205,158.667 78.622,158.667 78.793 C 158.667 78.963,158.557 79.249,158.422 79.426 C 158.107 79.843,158.107 80.990,158.422 81.407 C 158.557 81.585,158.667 81.852,158.667 82.001 C 158.667 82.366,159.418 83.020,160.352 83.466 C 161.091 83.820,161.305 83.833,166.102 83.829 L 171.083 83.825 171.833 83.269 C 172.629 82.679,172.917 82.191,173.914 79.750 C 174.251 78.925,174.629 78.025,174.755 77.750 C 174.880 77.475,175.178 76.762,175.417 76.167 C 175.655 75.571,175.959 74.840,176.092 74.542 C 176.225 74.244,176.432 73.756,176.553 73.458 C 176.674 73.160,176.937 72.579,177.137 72.167 C 177.337 71.754,177.501 71.353,177.500 71.275 C 177.500 71.197,177.608 70.897,177.740 70.609 C 177.871 70.320,178.175 69.596,178.415 69.000 C 178.858 67.897,178.974 67.631,179.728 65.979 C 180.294 64.742,179.072 64.838,194.197 64.836 C 207.658 64.833,208.250 64.859,208.432 65.456 C 208.481 65.618,208.625 65.975,208.752 66.250 C 208.879 66.525,209.178 67.237,209.417 67.833 C 209.655 68.429,209.959 69.160,210.092 69.458 C 210.225 69.756,210.442 70.244,210.575 70.542 C 210.708 70.840,211.011 71.571,211.249 72.167 C 211.487 72.762,211.746 73.400,211.826 73.583 C 212.217 74.487,212.700 75.572,213.000 76.219 C 213.183 76.615,213.333 76.995,213.333 77.063 C 213.333 77.131,213.527 77.614,213.763 78.135 C 214.000 78.657,214.256 79.233,214.332 79.417 C 214.408 79.600,214.620 80.087,214.803 80.500 C 214.986 80.912,215.180 81.400,215.234 81.583 C 215.397 82.135,216.450 83.160,217.207 83.504 C 218.365 84.030,226.867 83.985,228.114 83.447 C 229.365 82.906,230.158 81.735,230.164 80.414 C 230.167 79.816,229.424 77.809,228.252 75.250 C 228.126 74.975,227.712 74.000,227.332 73.083 C 226.579 71.265,226.380 70.805,225.851 69.648 C 225.658 69.226,225.500 68.766,225.500 68.627 C 225.500 68.488,225.387 68.281,225.250 68.167 C 225.112 68.053,225.000 67.845,225.000 67.706 C 225.000 67.567,224.842 67.107,224.649 66.685 C 224.120 65.528,223.921 65.068,223.168 63.250 C 222.788 62.333,222.375 61.358,222.251 61.083 C 221.972 60.468,221.737 59.921,220.746 57.583 C 220.318 56.575,219.819 55.413,219.636 55.000 C 219.119 53.835,219.044 53.656,218.582 52.500 C 218.344 51.904,218.031 51.154,217.886 50.833 C 217.407 49.776,217.189 49.263,216.750 48.167 C 216.512 47.571,216.208 46.840,216.075 46.542 C 215.942 46.244,215.728 45.756,215.599 45.458 C 215.471 45.160,215.219 44.579,215.040 44.167 C 214.861 43.754,214.510 42.929,214.261 42.333 C 214.012 41.737,213.707 41.025,213.584 40.750 C 213.461 40.475,212.936 39.237,212.418 38.000 C 211.899 36.762,211.373 35.525,211.249 35.250 C 211.125 34.975,210.712 34.000,210.332 33.083 C 209.952 32.167,209.540 31.192,209.416 30.917 C 209.291 30.642,208.879 29.667,208.499 28.750 C 207.829 27.134,207.598 26.594,207.092 25.458 C 206.959 25.160,206.656 24.429,206.418 23.833 C 205.950 22.661,205.867 22.467,205.362 21.333 C 205.179 20.921,204.866 20.171,204.668 19.667 C 204.470 19.162,204.207 18.525,204.083 18.250 C 203.960 17.975,203.657 17.262,203.410 16.667 C 201.929 13.093,201.695 12.703,200.586 11.951 L 199.923 11.500 194.077 11.500 L 188.232 11.500 187.539 12.010 M240.578 11.658 C 240.114 11.847,239.029 13.074,238.917 13.537 C 238.866 13.746,238.845 29.194,238.871 47.867 L 238.917 81.817 239.583 82.506 C 240.852 83.817,240.928 83.833,245.797 83.833 L 250.107 83.833 251.003 83.375 C 251.497 83.123,252.129 82.628,252.408 82.276 L 252.917 81.636 252.917 47.681 L 252.917 13.726 252.500 13.108 C 252.271 12.768,251.739 12.267,251.319 11.995 L 250.554 11.500 245.735 11.511 C 243.085 11.516,240.764 11.583,240.578 11.658 M271.000 11.622 C 270.514 11.809,269.481 12.985,269.325 13.529 C 269.094 14.335,269.112 81.000,269.344 81.614 C 269.580 82.242,270.442 83.123,271.202 83.515 C 271.802 83.824,272.486 83.833,294.047 83.833 L 316.274 83.833 317.170 83.375 C 317.663 83.123,318.295 82.628,318.575 82.276 L 319.083 81.636 319.083 76.860 L 319.083 72.083 318.590 71.438 C 318.319 71.084,317.794 70.596,317.423 70.355 L 316.750 69.917 300.083 69.833 L 283.417 69.750 283.333 41.738 L 283.250 13.726 282.789 13.029 C 282.536 12.647,282.273 12.333,282.206 12.333 C 282.139 12.333,281.865 12.146,281.599 11.916 L 281.115 11.500 276.182 11.513 C 273.470 11.520,271.137 11.569,271.000 11.622 M322.317 11.958 C 320.432 13.360,320.519 16.491,322.494 18.333 C 322.544 18.379,322.888 18.867,323.261 19.417 C 323.633 19.967,324.201 20.792,324.523 21.250 C 324.845 21.708,325.472 22.608,325.916 23.250 C 326.359 23.892,326.916 24.679,327.153 25.001 C 327.390 25.322,327.658 25.705,327.750 25.853 C 327.963 26.196,329.000 27.706,329.658 28.631 C 329.938 29.024,330.167 29.417,330.167 29.506 C 330.167 29.594,330.229 29.667,330.305 29.667 C 330.381 29.667,330.696 30.060,331.004 30.542 C 331.313 31.023,331.607 31.454,331.658 31.500 C 331.709 31.546,332.069 32.052,332.459 32.625 C 332.848 33.198,333.485 34.135,333.875 34.708 C 334.264 35.281,334.621 35.787,334.667 35.833 C 334.713 35.879,334.975 36.254,335.250 36.667 C 335.524 37.079,336.255 38.110,336.874 38.956 C 337.493 39.803,338.000 40.543,338.000 40.599 C 338.000 40.656,338.169 40.909,338.375 41.161 C 338.581 41.414,338.862 41.789,339.000 41.996 C 339.137 42.203,339.381 42.544,339.542 42.754 C 339.702 42.964,339.833 43.183,339.833 43.240 C 339.833 43.297,340.115 43.710,340.458 44.159 C 340.802 44.607,341.332 45.336,341.636 45.779 C 341.940 46.221,342.629 47.221,343.167 48.000 C 343.704 48.779,344.393 49.779,344.697 50.221 C 345.001 50.664,345.531 51.393,345.875 51.841 C 346.219 52.290,346.500 52.695,346.500 52.742 C 346.500 52.789,346.912 53.403,347.417 54.105 L 348.333 55.383 348.333 68.198 C 348.333 83.147,348.208 82.214,350.385 83.468 C 351.397 84.051,359.333 84.027,360.583 83.437 C 362.850 82.368,362.736 83.155,362.833 68.000 L 362.917 55.083 363.666 54.000 C 364.079 53.404,364.456 52.879,364.506 52.833 C 364.555 52.788,364.870 52.337,365.206 51.833 C 365.542 51.329,366.162 50.429,366.583 49.833 C 367.005 49.237,367.625 48.337,367.961 47.833 C 368.297 47.329,368.668 46.857,368.786 46.783 C 368.904 46.710,369.000 46.581,369.000 46.498 C 369.000 46.414,369.228 46.024,369.506 45.631 C 369.785 45.238,370.214 44.617,370.460 44.250 C 370.707 43.883,371.135 43.283,371.412 42.917 C 371.690 42.550,371.992 42.127,372.083 41.976 C 372.412 41.437,373.913 39.240,374.289 38.750 C 374.726 38.178,374.850 38.004,375.083 37.633 C 375.302 37.284,376.767 35.150,377.549 34.042 C 379.015 31.964,379.447 31.343,380.300 30.083 C 380.796 29.350,381.333 28.600,381.493 28.417 C 381.653 28.233,381.832 27.971,381.891 27.833 C 381.950 27.696,382.303 27.171,382.675 26.667 C 383.299 25.823,384.221 24.501,384.833 23.574 C 384.971 23.365,385.365 22.795,385.710 22.306 C 386.055 21.817,386.707 20.892,387.159 20.250 C 387.611 19.608,388.042 19.008,388.116 18.917 C 390.659 15.763,390.638 12.638,388.068 11.661 C 387.060 11.278,376.446 11.464,375.890 11.875 C 375.208 12.379,374.506 13.054,374.503 13.210 C 374.501 13.280,374.223 13.730,373.885 14.210 C 373.546 14.690,373.040 15.409,372.760 15.808 C 372.479 16.207,371.988 16.901,371.667 17.351 C 371.346 17.801,370.562 18.937,369.925 19.876 C 369.288 20.815,368.724 21.621,368.672 21.667 C 368.620 21.712,368.205 22.313,367.750 23.000 C 367.295 23.688,366.881 24.287,366.830 24.333 C 366.780 24.379,366.464 24.829,366.127 25.333 C 365.791 25.837,365.172 26.738,364.750 27.333 C 364.328 27.929,363.709 28.829,363.373 29.333 C 363.036 29.837,362.721 30.287,362.672 30.333 C 362.623 30.379,362.278 30.867,361.906 31.417 C 361.534 31.967,360.938 32.829,360.583 33.333 C 360.227 33.837,359.709 34.587,359.433 35.000 C 359.157 35.412,358.871 35.775,358.798 35.806 C 358.726 35.836,358.667 35.927,358.667 36.008 C 358.667 36.088,358.327 36.626,357.912 37.202 C 357.497 37.778,356.908 38.625,356.603 39.083 C 356.063 39.895,355.379 40.623,355.285 40.485 C 355.259 40.447,355.015 40.079,354.744 39.667 C 354.472 39.254,354.191 38.842,354.119 38.750 C 354.047 38.658,353.528 37.908,352.965 37.083 C 349.721 32.325,349.014 31.313,348.645 30.906 C 348.474 30.717,348.333 30.514,348.333 30.456 C 348.333 30.397,347.977 29.851,347.542 29.241 C 347.106 28.632,346.637 27.957,346.500 27.742 C 346.116 27.141,345.322 26.007,344.627 25.068 C 344.282 24.602,344.000 24.133,344.000 24.027 C 344.000 23.920,343.940 23.833,343.867 23.833 C 343.793 23.833,343.342 23.252,342.863 22.542 C 342.119 21.439,340.224 18.692,338.523 16.250 C 338.268 15.883,337.727 15.096,337.321 14.500 C 335.240 11.445,335.400 11.498,328.482 11.506 L 322.917 11.512 322.317 11.958 M195.153 33.750 C 195.541 34.667,195.958 35.642,196.079 35.917 C 196.200 36.192,196.464 36.829,196.667 37.333 C 197.096 38.405,197.338 38.968,197.817 40.011 C 198.009 40.429,198.167 40.834,198.167 40.909 C 198.167 40.985,198.317 41.374,198.500 41.773 C 198.683 42.173,198.983 42.827,199.167 43.227 C 199.350 43.626,199.500 44.033,199.500 44.130 C 199.500 44.227,199.603 44.519,199.730 44.778 C 199.856 45.038,200.074 45.512,200.215 45.833 C 200.356 46.154,200.665 46.843,200.902 47.365 C 201.139 47.886,201.333 48.381,201.333 48.464 C 201.333 48.622,201.675 49.417,202.091 50.223 C 202.493 51.003,202.525 51.000,194.157 51.000 C 185.435 51.000,185.711 51.032,186.422 50.093 C 186.557 49.915,186.666 49.653,186.666 49.510 C 186.666 49.367,186.828 48.913,187.026 48.500 C 187.224 48.087,187.441 47.632,187.509 47.488 C 187.577 47.344,187.835 46.707,188.083 46.072 C 188.331 45.436,188.684 44.579,188.866 44.167 C 189.428 42.899,189.619 42.451,190.000 41.500 C 190.202 40.996,190.467 40.358,190.588 40.083 C 190.709 39.808,191.119 38.833,191.499 37.917 C 192.361 35.837,192.528 35.445,192.975 34.454 C 193.172 34.016,193.333 33.579,193.333 33.484 C 193.333 33.161,194.210 31.810,194.330 31.947 C 194.395 32.022,194.766 32.833,195.153 33.750 M13.000 41.124 C 11.251 42.269,11.167 42.581,11.167 47.917 C 11.167 53.346,11.257 53.653,13.186 54.806 L 13.789 55.167 36.448 55.167 C 62.800 55.167,60.898 55.315,62.068 53.166 L 62.500 52.372 62.500 48.014 C 62.500 43.744,62.492 43.640,62.100 42.869 C 61.734 42.149,60.899 41.333,60.527 41.333 C 60.443 41.333,60.281 41.221,60.167 41.083 C 59.835 40.684,13.611 40.724,13.000 41.124 M12.638 71.045 C 11.319 72.041,11.257 72.309,11.200 77.225 C 11.141 82.341,11.226 82.783,12.456 83.791 L 13.219 84.417 39.078 84.417 L 64.936 84.417 65.510 83.934 C 66.797 82.852,66.833 82.678,66.833 77.634 C 66.833 72.372,66.738 72.031,64.962 70.897 L 64.340 70.500 38.850 70.500 L 13.359 70.500 12.638 71.045 " stroke="none" fill="#f9adad" fill-rule="evenodd"></path></g></svg>