<svg id="svg" version="1.1" width="400" height="296.7741935483871" viewBox="0 0 400 296.7741935483871" xmlns="http://www.w3.org/2000/svg" xmlns:xlink="http://www.w3.org/1999/xlink" ><g id="svgg"><path id="path0" d="M0.000 148.478 L 0.000 296.956 200.000 296.956 L 400.000 296.956 400.000 148.478 L 400.000 0.000 200.000 0.000 L 0.000 0.000 0.000 148.478 M206.682 18.414 C 212.578 18.982,216.658 19.647,220.045 20.590 C 220.943 20.840,222.413 21.243,223.311 21.484 C 239.854 25.931,255.867 37.111,265.996 51.284 C 270.350 57.377,274.457 65.118,276.441 70.973 C 276.967 72.524,277.509 74.061,277.645 74.388 C 277.908 75.017,278.784 78.362,279.589 81.811 C 280.091 83.960,280.464 86.511,280.914 90.869 C 281.258 94.195,281.257 103.793,280.913 106.607 C 280.763 107.832,280.513 109.925,280.358 111.258 C 280.202 112.591,279.871 114.462,279.622 115.415 C 279.373 116.369,278.837 118.419,278.431 119.970 C 276.095 128.895,270.348 140.527,265.078 147.000 C 264.875 147.249,264.264 148.099,263.720 148.890 C 259.382 155.195,244.942 166.972,237.120 170.585 C 236.466 170.887,234.813 171.663,233.447 172.309 C 232.080 172.955,230.610 173.592,230.180 173.724 C 229.750 173.855,228.285 174.373,226.925 174.873 C 225.564 175.373,223.560 175.994,222.470 176.252 C 216.614 177.640,215.628 177.852,214.402 177.984 C 213.667 178.064,211.930 178.340,210.542 178.597 C 208.695 178.938,206.106 179.064,200.891 179.064 C 195.675 179.064,193.087 178.938,191.240 178.597 C 189.852 178.340,188.114 178.064,187.379 177.984 C 186.154 177.852,185.168 177.640,179.311 176.252 C 178.222 175.994,176.218 175.373,174.857 174.873 C 173.496 174.373,172.049 173.857,171.641 173.727 C 171.232 173.598,169.696 172.931,168.226 172.245 C 166.756 171.560,165.085 170.798,164.514 170.553 C 163.261 170.015,163.384 170.085,159.317 167.601 C 148.815 161.189,138.097 150.412,132.030 140.163 C 130.365 137.350,126.206 129.055,126.206 128.546 C 126.206 128.399,125.961 127.712,125.662 127.020 C 123.082 121.058,121.310 112.762,120.553 103.091 C 120.095 97.248,120.459 92.172,122.028 82.554 C 122.148 81.819,122.478 80.349,122.761 79.287 C 123.045 78.226,123.456 76.689,123.675 75.872 C 123.894 75.056,124.498 73.252,125.018 71.863 C 125.537 70.475,126.068 68.996,126.197 68.576 C 128.508 61.050,137.565 47.739,145.505 40.198 C 154.349 31.798,168.334 23.727,177.580 21.688 C 178.151 21.562,179.688 21.160,180.995 20.796 C 184.997 19.681,189.067 18.973,194.655 18.419 C 197.595 18.128,200.134 17.875,200.297 17.858 C 200.460 17.841,203.333 18.091,206.682 18.414 M189.161 28.385 C 184.004 29.343,182.034 29.834,179.213 30.861 C 178.233 31.218,176.830 31.713,176.095 31.961 C 165.314 35.603,150.500 46.728,144.314 55.828 C 143.925 56.399,143.524 56.934,143.422 57.016 C 143.129 57.250,140.757 60.823,140.757 61.029 C 140.757 61.131,140.376 61.773,139.910 62.456 C 136.341 67.682,131.957 79.920,130.954 87.454 C 130.780 88.760,130.515 90.765,130.365 91.908 C 130.215 93.051,130.093 95.991,130.093 98.441 C 130.093 100.891,130.215 103.831,130.365 104.974 C 131.124 110.765,131.365 112.109,132.305 115.813 C 133.460 120.362,134.807 124.078,136.923 128.544 C 137.725 130.237,138.382 131.664,138.382 131.714 C 138.382 131.764,139.050 132.894,139.866 134.224 C 140.683 135.555,141.351 136.718,141.351 136.808 C 141.351 138.323,151.948 150.059,156.347 153.417 C 176.935 169.130,199.952 173.191,223.462 165.258 C 233.845 161.754,242.618 156.460,250.518 148.929 C 252.708 146.841,259.835 137.882,260.752 136.063 C 260.973 135.623,261.538 134.689,262.005 133.986 C 263.525 131.704,266.412 125.353,268.029 120.734 C 270.732 113.014,271.929 103.454,271.415 93.690 C 270.881 83.563,267.494 72.072,262.574 63.697 C 260.245 59.733,259.531 58.632,257.757 56.272 C 250.213 46.235,241.931 39.487,230.577 34.126 C 225.932 31.933,223.243 30.962,217.372 29.358 C 210.393 27.451,196.722 26.979,189.161 28.385 M208.463 30.300 C 213.956 30.971,220.799 32.412,222.388 33.233 C 222.650 33.369,223.734 33.780,224.796 34.148 C 241.917 40.070,258.932 56.963,264.878 73.942 C 265.078 74.514,265.354 75.249,265.491 75.575 C 268.379 82.465,270.222 97.383,269.048 104.380 C 268.883 105.360,268.748 106.801,268.747 107.583 C 268.746 108.824,268.375 110.725,267.231 115.367 C 266.550 118.132,264.449 124.224,263.674 125.683 C 263.523 125.966,263.400 126.315,263.400 126.458 C 263.400 126.601,262.848 127.705,262.174 128.912 C 261.499 130.119,260.409 132.108,259.752 133.333 C 256.385 139.604,247.716 149.357,242.001 153.305 C 241.113 153.919,239.347 155.155,238.078 156.054 C 232.672 159.878,221.831 164.329,214.914 165.563 C 213.408 165.832,211.173 166.237,209.948 166.463 C 186.353 170.816,156.966 157.279,143.565 135.883 C 142.756 134.591,141.794 133.054,141.429 132.468 C 140.758 131.393,139.339 128.544,138.384 126.355 C 138.100 125.702,137.591 124.566,137.254 123.831 C 135.575 120.171,133.520 112.179,133.017 107.350 C 132.308 100.550,132.451 90.374,133.303 87.074 C 133.459 86.466,133.730 85.089,133.904 84.013 C 134.514 80.248,137.324 72.503,139.944 67.362 C 142.589 62.176,143.274 61.088,147.142 55.923 C 151.440 50.187,159.425 43.334,166.444 39.358 C 168.404 38.248,170.556 37.029,171.227 36.648 C 171.898 36.268,173.167 35.680,174.048 35.342 C 174.929 35.004,175.917 34.607,176.244 34.459 C 178.660 33.365,183.520 32.009,188.567 31.019 C 192.735 30.202,204.253 29.786,208.463 30.300 M233.111 64.019 C 230.833 64.961,224.839 67.481,222.569 68.451 C 222.079 68.660,221.066 69.106,220.318 69.441 C 219.569 69.776,218.233 70.335,217.348 70.683 C 215.675 71.341,214.915 71.664,212.550 72.720 C 211.776 73.065,211.077 73.348,210.998 73.348 C 210.919 73.348,209.978 73.749,208.909 74.239 C 207.839 74.729,206.899 75.130,206.819 75.130 C 206.740 75.130,206.075 75.397,205.342 75.724 C 204.609 76.050,203.409 76.585,202.676 76.912 C 201.943 77.238,201.273 77.506,201.188 77.506 C 201.103 77.506,200.400 77.788,199.626 78.134 C 198.852 78.480,197.784 78.947,197.253 79.173 C 196.722 79.399,195.854 79.769,195.323 79.995 C 194.792 80.221,193.725 80.689,192.951 81.034 C 192.177 81.380,191.479 81.663,191.400 81.663 C 191.322 81.663,190.552 81.984,189.690 82.377 C 188.827 82.769,186.986 83.554,185.598 84.120 C 162.303 93.618,159.465 95.126,159.465 98.011 C 159.465 100.322,160.856 101.706,165.702 104.219 C 173.699 108.367,178.748 114.487,181.907 123.861 C 184.943 132.871,187.447 133.944,193.122 128.669 C 195.483 126.474,199.195 125.390,202.022 126.069 C 205.065 126.800,205.372 126.957,210.690 130.496 C 216.970 134.675,219.335 135.342,222.391 133.793 C 225.352 132.293,225.924 131.126,228.367 121.604 C 229.373 117.684,230.729 112.405,231.381 109.874 C 232.034 107.342,232.678 104.803,232.814 104.232 C 232.950 103.660,233.484 101.589,234.001 99.629 C 234.947 96.046,235.217 94.988,235.746 92.799 C 235.904 92.146,236.322 90.542,236.674 89.235 C 237.027 87.929,237.444 86.325,237.602 85.672 C 238.111 83.566,238.390 82.470,239.300 78.990 C 239.792 77.112,240.538 74.255,240.958 72.642 C 243.167 64.160,240.324 61.036,233.111 64.019 M223.608 79.661 C 223.608 80.118,221.214 82.903,217.409 86.872 C 215.837 88.512,213.762 90.717,212.797 91.772 C 211.833 92.827,210.029 94.760,208.788 96.069 C 196.715 108.806,194.108 112.093,191.484 117.892 C 190.238 120.643,189.981 121.122,189.432 121.712 C 187.880 123.377,186.362 121.650,185.290 117.001 C 185.159 116.429,184.756 114.892,184.395 113.586 C 182.588 107.045,181.899 107.905,197.812 96.828 C 198.852 96.104,200.171 95.155,200.742 94.720 C 201.314 94.284,205.523 91.282,210.097 88.049 C 214.670 84.816,219.079 81.689,219.896 81.100 C 222.463 79.247,223.608 78.804,223.608 79.661 M69.794 215.744 C 72.329 217.054,72.438 226.839,69.937 228.478 C 69.287 228.904,66.670 228.953,44.746 228.953 L 20.281 228.953 19.284 228.282 C 17.986 227.407,17.882 226.939,17.847 221.818 C 17.816 217.332,17.959 216.721,19.289 215.674 C 20.052 215.072,68.626 215.139,69.794 215.744 M96.599 215.893 C 97.019 216.223,99.748 219.664,102.664 223.540 C 113.780 238.314,117.049 242.608,117.297 242.762 C 117.438 242.849,118.274 241.949,119.154 240.762 C 120.034 239.575,122.292 236.533,124.173 234.001 C 131.144 224.617,135.318 218.967,136.291 217.597 C 137.917 215.308,137.964 215.293,143.900 215.293 L 149.142 215.293 150.295 216.446 L 151.448 217.599 151.448 250.017 C 151.448 289.350,152.301 285.078,144.443 285.078 C 136.833 285.078,137.494 287.389,137.492 260.802 C 137.491 247.230,137.388 239.941,137.197 239.941 C 137.035 239.941,136.467 240.526,135.935 241.242 C 134.938 242.582,130.798 247.921,127.394 252.254 C 126.333 253.606,124.462 256.026,123.237 257.632 C 118.025 264.465,116.812 264.591,112.430 258.756 C 111.923 258.080,109.369 254.819,106.756 251.511 C 104.143 248.202,101.002 244.221,99.777 242.663 C 98.552 241.106,97.383 239.778,97.179 239.713 C 96.884 239.619,96.806 244.088,96.798 261.371 C 96.791 278.028,96.704 283.256,96.427 283.607 C 95.371 284.947,94.790 285.078,89.882 285.078 L 85.167 285.078 84.157 284.068 L 83.148 283.059 83.148 250.335 C 83.148 214.653,83.064 216.455,84.757 215.633 C 86.047 215.007,95.744 215.220,96.599 215.893 M200.755 215.961 C 201.443 216.426,201.963 217.173,202.459 218.411 C 202.852 219.391,203.495 220.899,203.888 221.761 C 204.281 222.623,204.603 223.393,204.603 223.472 C 204.603 223.550,204.886 224.248,205.231 225.022 C 205.954 226.640,206.201 227.224,207.715 230.883 C 209.215 234.508,210.081 236.539,211.101 238.824 C 211.447 239.598,211.730 240.296,211.730 240.375 C 211.730 240.455,212.131 241.395,212.621 242.465 C 213.111 243.535,213.512 244.470,213.512 244.543 C 213.512 244.617,213.912 245.552,214.402 246.622 C 214.892 247.692,215.293 248.627,215.293 248.699 C 215.293 248.772,215.617 249.540,216.013 250.405 C 216.408 251.270,217.020 252.708,217.372 253.601 C 217.724 254.493,218.335 255.931,218.731 256.797 C 219.127 257.662,219.451 258.434,219.451 258.512 C 219.451 258.591,219.709 259.222,220.026 259.914 C 220.342 260.607,220.956 262.042,221.390 263.103 C 221.825 264.165,222.362 265.434,222.584 265.924 C 223.589 268.143,228.454 279.714,228.855 280.842 C 230.009 284.083,228.353 285.068,221.742 285.074 C 215.955 285.079,215.638 284.969,214.556 282.576 C 212.915 278.945,212.617 278.260,212.019 276.744 C 211.672 275.862,211.063 274.432,210.668 273.567 C 210.272 272.702,209.948 271.930,209.948 271.851 C 209.948 271.773,209.665 271.075,209.320 270.301 C 208.974 269.527,208.500 268.460,208.266 267.929 L 207.841 266.964 194.348 266.964 L 180.854 266.964 180.377 268.077 C 179.477 270.175,177.536 274.833,176.634 277.060 C 176.138 278.285,175.493 279.822,175.202 280.475 C 174.910 281.128,174.472 282.145,174.228 282.734 C 173.291 285.000,173.056 285.078,167.205 285.077 C 159.460 285.075,158.382 284.012,160.787 278.755 C 161.178 277.899,161.783 276.476,162.131 275.594 C 162.478 274.712,163.016 273.434,163.326 272.754 C 163.636 272.075,164.173 270.797,164.521 269.914 C 164.869 269.032,165.477 267.602,165.873 266.737 C 166.269 265.872,166.592 265.100,166.592 265.021 C 166.592 264.943,166.875 264.245,167.221 263.471 C 167.808 262.157,168.005 261.700,169.081 259.169 C 169.307 258.638,169.693 257.736,169.940 257.164 C 170.186 256.592,171.087 254.454,171.942 252.413 C 172.797 250.371,174.827 245.561,176.452 241.722 C 178.078 237.884,180.284 232.673,181.354 230.141 C 182.424 227.610,183.543 224.993,183.840 224.326 C 184.136 223.660,184.663 222.393,185.011 221.511 C 187.543 215.087,187.231 215.297,194.240 215.295 C 199.478 215.293,199.815 215.328,200.755 215.961 M249.967 216.310 L 251.076 217.326 251.165 249.495 C 251.226 271.729,251.155 282.002,250.935 282.761 C 250.323 284.871,249.721 285.078,244.184 285.078 L 239.301 285.078 238.458 284.235 C 237.214 282.991,237.231 283.530,237.328 248.899 L 237.416 217.026 238.386 216.160 L 239.356 215.293 244.107 215.293 L 248.858 215.293 249.967 216.310 M279.208 216.160 L 280.178 217.026 280.327 244.296 L 280.475 271.566 296.362 271.638 C 314.152 271.717,313.917 271.688,314.772 273.939 C 315.260 275.223,315.151 282.280,314.627 283.293 C 313.650 285.181,315.027 285.078,290.807 285.078 L 268.755 285.078 267.785 284.211 L 266.815 283.345 266.737 250.634 C 266.652 215.089,266.594 216.445,268.241 215.649 C 268.611 215.470,270.923 215.325,273.566 215.313 L 278.239 215.293 279.208 216.160 M330.386 215.944 C 330.908 216.302,331.718 217.155,332.186 217.840 C 332.654 218.524,334.184 220.737,335.587 222.757 C 341.785 231.680,345.900 237.614,347.649 240.151 C 350.231 243.895,349.828 243.901,352.434 240.089 C 353.439 238.619,355.566 235.531,357.160 233.227 C 358.755 230.923,361.979 226.246,364.325 222.834 C 369.988 214.597,368.931 215.297,375.719 215.295 L 381.282 215.293 382.252 216.160 C 384.447 218.121,384.281 218.489,375.656 230.883 C 374.178 233.007,372.044 236.080,370.914 237.713 C 369.784 239.347,367.838 242.153,366.589 243.950 C 364.172 247.428,361.051 251.937,358.500 255.638 L 356.941 257.900 356.941 270.182 C 356.941 286.205,357.480 285.078,349.823 285.078 L 345.109 285.078 344.195 284.164 L 343.281 283.251 343.281 270.678 L 343.281 258.106 341.695 255.779 C 339.893 253.138,336.524 248.278,333.562 244.049 C 332.456 242.471,330.697 239.932,329.653 238.407 C 328.609 236.882,327.552 235.400,327.304 235.113 C 327.056 234.826,326.708 234.342,326.530 234.038 C 326.107 233.313,323.087 228.922,319.917 224.423 C 316.078 218.973,315.764 217.747,317.776 216.054 C 319.087 214.950,328.812 214.866,330.386 215.944 M193.771 236.156 C 193.495 236.849,193.064 237.884,192.813 238.456 C 191.804 240.754,191.557 241.343,190.943 242.910 C 190.279 244.603,189.962 245.352,188.899 247.732 C 188.553 248.506,188.270 249.210,188.270 249.295 C 188.270 249.463,187.192 251.962,186.779 252.752 C 186.638 253.020,186.605 253.321,186.704 253.420 C 186.912 253.628,202.227 253.671,202.227 253.463 C 202.227 253.387,201.342 251.215,200.259 248.637 C 199.177 246.059,197.828 242.814,197.261 241.425 C 196.695 240.037,195.910 238.196,195.517 237.333 C 195.125 236.471,194.803 235.644,194.803 235.495 C 194.803 234.681,194.206 235.064,193.771 236.156 M65.637 244.252 C 67.152 245.035,67.409 245.970,67.408 250.691 C 67.406 258.132,69.765 257.514,41.803 257.402 L 19.612 257.313 18.789 256.490 L 17.966 255.667 17.885 250.848 C 17.798 245.638,17.964 244.863,19.308 244.182 C 20.512 243.573,64.452 243.639,65.637 244.252 M69.794 272.759 C 71.323 273.550,71.566 274.462,71.566 279.400 L 71.566 283.848 70.566 284.908 L 69.566 285.969 44.954 285.968 C 14.697 285.966,17.703 286.784,17.872 278.597 L 17.966 274.040 18.936 273.175 L 19.905 272.309 44.414 272.309 C 65.741 272.309,69.036 272.367,69.794 272.759 " stroke="none" fill="#ffffff" fill-rule="evenodd"></path><path id="path1" d="M194.655 18.419 C 189.067 18.973,184.997 19.681,180.995 20.796 C 179.688 21.160,178.151 21.562,177.580 21.688 C 168.334 23.727,154.349 31.798,145.505 40.198 C 137.565 47.739,128.508 61.050,126.197 68.576 C 126.068 68.996,125.537 70.475,125.018 71.863 C 124.498 73.252,123.894 75.056,123.675 75.872 C 122.098 81.750,122.237 81.090,121.357 86.860 C 119.294 100.393,120.991 116.226,125.662 127.020 C 125.961 127.712,126.206 128.399,126.206 128.546 C 126.206 129.055,130.365 137.350,132.030 140.163 C 138.097 150.412,148.815 161.189,159.317 167.601 C 163.384 170.085,163.261 170.015,164.514 170.553 C 165.085 170.798,166.756 171.560,168.226 172.245 C 169.696 172.931,171.232 173.598,171.641 173.727 C 172.049 173.857,173.496 174.373,174.857 174.873 C 176.218 175.373,178.222 175.994,179.311 176.252 C 185.168 177.640,186.154 177.852,187.379 177.984 C 188.114 178.064,189.852 178.340,191.240 178.597 C 193.087 178.938,195.675 179.064,200.891 179.064 C 206.106 179.064,208.695 178.938,210.542 178.597 C 211.930 178.340,213.667 178.064,214.402 177.984 C 215.628 177.852,216.614 177.640,222.470 176.252 C 223.560 175.994,225.564 175.373,226.925 174.873 C 228.285 174.373,229.750 173.855,230.180 173.724 C 230.610 173.592,232.080 172.955,233.447 172.309 C 234.813 171.663,236.466 170.887,237.120 170.585 C 244.942 166.972,259.382 155.195,263.720 148.890 C 264.264 148.099,264.875 147.249,265.078 147.000 C 270.348 140.527,276.095 128.895,278.431 119.970 C 278.837 118.419,279.373 116.369,279.622 115.415 C 279.871 114.462,280.202 112.591,280.358 111.258 C 280.513 109.925,280.763 107.832,280.913 106.607 C 281.671 100.410,281.001 87.858,279.589 81.811 C 278.784 78.362,277.908 75.017,277.645 74.388 C 277.509 74.061,276.967 72.524,276.441 70.973 C 274.457 65.118,270.350 57.377,265.996 51.284 C 255.867 37.111,239.854 25.931,223.311 21.484 C 222.413 21.243,220.943 20.840,220.045 20.590 C 216.175 19.512,202.535 17.625,200.297 17.858 C 200.134 17.875,197.595 18.128,194.655 18.419 M212.324 28.351 C 214.529 28.749,216.800 29.202,217.372 29.358 C 223.243 30.962,225.932 31.933,230.577 34.126 C 241.931 39.487,250.213 46.235,257.757 56.272 C 259.531 58.632,260.245 59.733,262.574 63.697 C 265.558 68.776,267.975 74.997,269.611 81.811 C 273.030 96.051,272.018 110.849,266.703 124.332 C 265.684 126.917,262.893 132.653,262.005 133.986 C 261.538 134.689,260.973 135.623,260.752 136.063 C 259.835 137.882,252.708 146.841,250.518 148.929 C 225.386 172.886,187.142 175.841,159.762 155.942 C 155.155 152.593,153.736 151.385,150.303 147.884 C 147.333 144.856,141.351 137.455,141.351 136.808 C 141.351 136.718,140.683 135.555,139.866 134.224 C 139.050 132.894,138.382 131.764,138.382 131.714 C 138.382 131.664,137.725 130.237,136.923 128.544 C 134.807 124.078,133.460 120.362,132.305 115.813 C 131.365 112.109,131.124 110.765,130.365 104.974 C 130.215 103.831,130.093 100.891,130.093 98.441 C 130.093 95.991,130.215 93.051,130.365 91.908 C 130.515 90.765,130.780 88.760,130.954 87.454 C 131.957 79.920,136.341 67.682,139.910 62.456 C 140.376 61.773,140.757 61.131,140.757 61.029 C 140.757 60.823,143.129 57.250,143.422 57.016 C 143.524 56.934,143.925 56.399,144.314 55.828 C 150.500 46.728,165.314 35.603,176.095 31.961 C 176.830 31.713,178.233 31.218,179.213 30.861 C 187.888 27.702,202.561 26.590,212.324 28.351 M193.764 30.448 C 189.366 30.837,189.132 30.873,184.707 31.839 C 182.187 32.389,177.849 33.732,176.244 34.459 C 175.917 34.607,174.929 35.004,174.048 35.342 C 173.167 35.680,171.898 36.268,171.227 36.648 C 170.556 37.029,168.404 38.248,166.444 39.358 C 159.425 43.334,151.440 50.187,147.142 55.923 C 143.274 61.088,142.589 62.176,139.944 67.362 C 137.324 72.503,134.514 80.248,133.904 84.013 C 133.730 85.089,133.459 86.466,133.303 87.074 C 132.451 90.374,132.308 100.550,133.017 107.350 C 133.520 112.179,135.575 120.171,137.254 123.831 C 137.591 124.566,138.100 125.702,138.384 126.355 C 139.339 128.544,140.758 131.393,141.429 132.468 C 141.794 133.054,142.756 134.591,143.565 135.883 C 156.966 157.279,186.353 170.816,209.948 166.463 C 211.173 166.237,213.408 165.832,214.914 165.563 C 221.831 164.329,232.672 159.878,238.078 156.054 C 239.347 155.155,241.113 153.919,242.001 153.305 C 247.716 149.357,256.385 139.604,259.752 133.333 C 260.409 132.108,261.499 130.119,262.174 128.912 C 262.848 127.705,263.400 126.601,263.400 126.458 C 263.400 126.315,263.523 125.966,263.674 125.683 C 264.449 124.224,266.550 118.132,267.231 115.367 C 268.375 110.725,268.746 108.824,268.747 107.583 C 268.748 106.801,268.883 105.360,269.048 104.380 C 270.222 97.383,268.379 82.465,265.491 75.575 C 265.354 75.249,265.078 74.514,264.878 73.942 C 258.932 56.963,241.917 40.070,224.796 34.148 C 223.734 33.780,222.650 33.369,222.388 33.233 C 222.125 33.097,220.387 32.593,218.527 32.113 C 210.572 30.059,203.527 29.586,193.764 30.448 M239.635 63.335 C 241.858 64.459,242.293 67.519,240.958 72.642 C 240.538 74.255,239.792 77.112,239.300 78.990 C 238.390 82.470,238.111 83.566,237.602 85.672 C 237.444 86.325,237.027 87.929,236.674 89.235 C 236.322 90.542,235.904 92.146,235.746 92.799 C 235.217 94.988,234.947 96.046,234.001 99.629 C 233.484 101.589,232.950 103.660,232.814 104.232 C 232.678 104.803,232.034 107.342,231.381 109.874 C 230.729 112.405,229.373 117.684,228.367 121.604 C 225.924 131.126,225.352 132.293,222.391 133.793 C 219.335 135.342,216.970 134.675,210.690 130.496 C 205.372 126.957,205.065 126.800,202.022 126.069 C 199.195 125.390,195.483 126.474,193.122 128.669 C 187.447 133.944,184.943 132.871,181.907 123.861 C 178.748 114.487,173.699 108.367,165.702 104.219 C 160.856 101.706,159.465 100.322,159.465 98.011 C 159.465 95.126,162.303 93.618,185.598 84.120 C 186.986 83.554,188.827 82.769,189.690 82.377 C 190.552 81.984,191.322 81.663,191.400 81.663 C 191.479 81.663,192.177 81.380,192.951 81.034 C 193.725 80.689,194.792 80.221,195.323 79.995 C 195.854 79.769,196.722 79.399,197.253 79.173 C 197.784 78.947,198.852 78.480,199.626 78.134 C 200.400 77.788,201.103 77.506,201.188 77.506 C 201.273 77.506,201.943 77.238,202.676 76.912 C 203.409 76.585,204.609 76.050,205.342 75.724 C 206.075 75.397,206.740 75.130,206.819 75.130 C 206.899 75.130,207.839 74.729,208.909 74.239 C 209.978 73.749,210.919 73.348,210.998 73.348 C 211.077 73.348,211.776 73.065,212.550 72.720 C 214.915 71.664,215.675 71.341,217.348 70.683 C 218.233 70.335,219.569 69.776,220.318 69.441 C 221.922 68.722,222.352 68.537,227.023 66.567 C 235.282 63.082,235.586 62.976,237.268 62.969 C 238.166 62.966,239.231 63.130,239.635 63.335 M221.975 79.675 C 221.648 79.870,220.713 80.511,219.896 81.100 C 219.079 81.689,214.670 84.816,210.097 88.049 C 205.523 91.282,201.314 94.284,200.742 94.720 C 200.171 95.155,198.852 96.104,197.812 96.828 C 181.899 107.905,182.588 107.045,184.395 113.586 C 184.756 114.892,185.159 116.429,185.290 117.001 C 186.362 121.650,187.880 123.377,189.432 121.712 C 189.981 121.122,190.238 120.643,191.484 117.892 C 194.108 112.093,196.715 108.806,208.788 96.069 C 210.029 94.760,211.833 92.827,212.797 91.772 C 213.762 90.717,215.837 88.512,217.409 86.872 C 221.214 82.903,223.608 80.118,223.608 79.661 C 223.608 79.197,222.766 79.205,221.975 79.675 M19.289 215.674 C 17.959 216.721,17.816 217.332,17.847 221.818 C 17.882 226.939,17.986 227.407,19.284 228.282 L 20.281 228.953 44.746 228.953 C 71.745 228.953,70.131 229.067,71.114 227.096 C 71.758 225.805,71.760 218.310,71.116 217.065 C 70.159 215.216,71.325 215.292,44.335 215.303 C 25.469 215.310,19.641 215.396,19.289 215.674 M84.757 215.633 C 83.064 216.455,83.148 214.653,83.148 250.335 L 83.148 283.059 84.157 284.068 L 85.167 285.078 89.882 285.078 C 94.790 285.078,95.371 284.947,96.427 283.607 C 96.704 283.256,96.791 278.028,96.798 261.371 C 96.806 244.088,96.884 239.619,97.179 239.713 C 97.383 239.778,98.552 241.106,99.777 242.663 C 101.002 244.221,104.143 248.202,106.756 251.511 C 109.369 254.819,111.923 258.080,112.430 258.756 C 116.812 264.591,118.025 264.465,123.237 257.632 C 124.462 256.026,126.333 253.606,127.394 252.254 C 130.798 247.921,134.938 242.582,135.935 241.242 C 136.467 240.526,137.035 239.941,137.197 239.941 C 137.388 239.941,137.491 247.230,137.492 260.802 C 137.494 287.389,136.833 285.078,144.443 285.078 C 152.301 285.078,151.448 289.350,151.448 250.017 L 151.448 217.599 150.295 216.446 L 149.142 215.293 143.900 215.293 C 137.964 215.293,137.917 215.308,136.291 217.597 C 135.318 218.967,131.144 224.617,124.173 234.001 C 122.292 236.533,120.034 239.575,119.154 240.762 C 118.274 241.949,117.438 242.849,117.297 242.762 C 117.049 242.608,113.780 238.314,102.664 223.540 C 99.748 219.664,97.019 216.223,96.599 215.893 C 95.744 215.220,86.047 215.007,84.757 215.633 M187.914 215.963 C 187.141 216.606,186.344 218.128,185.011 221.511 C 184.663 222.393,184.136 223.660,183.840 224.326 C 183.543 224.993,182.424 227.610,181.354 230.141 C 180.284 232.673,178.078 237.884,176.452 241.722 C 174.827 245.561,172.797 250.371,171.942 252.413 C 171.087 254.454,170.186 256.592,169.940 257.164 C 169.693 257.736,169.307 258.638,169.081 259.169 C 168.005 261.700,167.808 262.157,167.221 263.471 C 166.875 264.245,166.592 264.943,166.592 265.021 C 166.592 265.100,166.269 265.872,165.873 266.737 C 165.477 267.602,164.869 269.032,164.521 269.914 C 164.173 270.797,163.636 272.075,163.326 272.754 C 163.016 273.434,162.478 274.712,162.131 275.594 C 161.783 276.476,161.178 277.899,160.787 278.755 C 158.382 284.012,159.460 285.075,167.205 285.077 C 173.056 285.078,173.291 285.000,174.228 282.734 C 174.472 282.145,174.910 281.128,175.202 280.475 C 175.493 279.822,176.138 278.285,176.634 277.060 C 177.536 274.833,179.477 270.175,180.377 268.077 L 180.854 266.964 194.348 266.964 L 207.841 266.964 208.266 267.929 C 208.500 268.460,208.974 269.527,209.320 270.301 C 209.665 271.075,209.948 271.773,209.948 271.851 C 209.948 271.930,210.272 272.702,210.668 273.567 C 211.063 274.432,211.672 275.862,212.019 276.744 C 212.617 278.260,212.915 278.945,214.556 282.576 C 215.638 284.969,215.955 285.079,221.742 285.074 C 228.353 285.068,230.009 284.083,228.855 280.842 C 228.454 279.714,223.589 268.143,222.584 265.924 C 222.362 265.434,221.825 264.165,221.390 263.103 C 220.956 262.042,220.342 260.607,220.026 259.914 C 219.709 259.222,219.451 258.591,219.451 258.512 C 219.451 258.434,219.127 257.662,218.731 256.797 C 218.335 255.931,217.724 254.493,217.372 253.601 C 217.020 252.708,216.408 251.270,216.013 250.405 C 215.617 249.540,215.293 248.772,215.293 248.699 C 215.293 248.627,214.892 247.692,214.402 246.622 C 213.912 245.552,213.512 244.617,213.512 244.543 C 213.512 244.470,213.111 243.535,212.621 242.465 C 212.131 241.395,211.730 240.455,211.730 240.375 C 211.730 240.296,211.447 239.598,211.101 238.824 C 210.081 236.539,209.215 234.508,207.715 230.883 C 206.201 227.224,205.954 226.640,205.231 225.022 C 204.886 224.248,204.603 223.550,204.603 223.472 C 204.603 223.393,204.281 222.623,203.888 221.761 C 203.495 220.899,202.852 219.391,202.459 218.411 C 201.270 215.444,200.872 215.293,194.240 215.295 C 188.952 215.296,188.681 215.325,187.914 215.963 M238.386 216.160 L 237.416 217.026 237.328 248.899 C 237.231 283.530,237.214 282.991,238.458 284.235 L 239.301 285.078 244.184 285.078 C 249.721 285.078,250.323 284.871,250.935 282.761 C 251.155 282.002,251.226 271.729,251.165 249.495 L 251.076 217.326 249.967 216.310 L 248.858 215.293 244.107 215.293 L 239.356 215.293 238.386 216.160 M268.241 215.649 C 266.594 216.445,266.652 215.089,266.737 250.634 L 266.815 283.345 267.785 284.211 L 268.755 285.078 290.807 285.078 C 315.027 285.078,313.650 285.181,314.627 283.293 C 315.151 282.280,315.260 275.223,314.772 273.939 C 313.917 271.688,314.152 271.717,296.362 271.638 L 280.475 271.566 280.327 244.296 L 280.178 217.026 279.208 216.160 L 278.239 215.293 273.566 215.313 C 270.923 215.325,268.611 215.470,268.241 215.649 M317.776 216.054 C 315.764 217.747,316.078 218.973,319.917 224.423 C 323.087 228.922,326.107 233.313,326.530 234.038 C 326.708 234.342,327.056 234.826,327.304 235.113 C 327.552 235.400,328.609 236.882,329.653 238.407 C 330.697 239.932,332.456 242.471,333.562 244.049 C 336.524 248.278,339.893 253.138,341.695 255.779 L 343.281 258.106 343.281 270.678 L 343.281 283.251 344.195 284.164 L 345.109 285.078 349.823 285.078 C 357.480 285.078,356.941 286.205,356.941 270.182 L 356.941 257.900 358.500 255.638 C 361.051 251.937,364.172 247.428,366.589 243.950 C 367.838 242.153,369.784 239.347,370.914 237.713 C 372.044 236.080,374.178 233.007,375.656 230.883 C 384.281 218.489,384.447 218.121,382.252 216.160 L 381.282 215.293 375.719 215.295 C 368.931 215.297,369.988 214.597,364.325 222.834 C 361.979 226.246,358.755 230.923,357.160 233.227 C 355.566 235.531,353.439 238.619,352.434 240.089 C 349.828 243.901,350.231 243.895,347.649 240.151 C 345.900 237.614,341.785 231.680,335.587 222.757 C 334.184 220.737,332.654 218.524,332.186 217.840 C 330.524 215.406,330.163 215.293,324.058 215.293 C 318.720 215.293,318.673 215.299,317.776 216.054 M194.803 235.495 C 194.803 235.644,195.125 236.471,195.517 237.333 C 195.910 238.196,196.695 240.037,197.261 241.425 C 197.828 242.814,199.177 246.059,200.259 248.637 C 201.342 251.215,202.227 253.387,202.227 253.463 C 202.227 253.671,186.912 253.628,186.704 253.420 C 186.605 253.321,186.638 253.020,186.779 252.752 C 187.192 251.962,188.270 249.463,188.270 249.295 C 188.270 249.210,188.553 248.506,188.899 247.732 C 189.962 245.352,190.279 244.603,190.943 242.910 C 191.557 241.343,191.804 240.754,192.813 238.456 C 193.064 237.884,193.495 236.849,193.771 236.156 C 194.206 235.064,194.803 234.681,194.803 235.495 M19.308 244.182 C 17.964 244.863,17.798 245.638,17.885 250.848 L 17.966 255.667 18.789 256.490 L 19.612 257.313 41.803 257.402 C 69.765 257.514,67.406 258.132,67.408 250.691 C 67.409 245.970,67.152 245.035,65.637 244.252 C 64.452 243.639,20.512 243.573,19.308 244.182 M18.936 273.175 L 17.966 274.040 17.872 278.597 C 17.703 286.784,14.697 285.966,44.954 285.968 L 69.566 285.969 70.566 284.908 L 71.566 283.848 71.566 279.400 C 71.566 271.549,74.475 272.309,44.414 272.309 L 19.905 272.309 18.936 273.175 " stroke="none" fill="#f9adad" fill-rule="evenodd"></path></g></svg>